<svg width="553" height="188" viewBox="0 0 553 188" fill="none" xmlns="http://www.w3.org/2000/svg">
<rect width="553" height="188" fill="#E5E5E5"/>
<rect width="553" height="188" fill="white"/>
<path d="M153.844 67.2031C153.844 62.8438 153.469 59.1875 152.719 56.2344C151.969 53.2344 151.031 50.7734 149.906 48.8516C148.781 46.9297 147.562 45.4531 146.25 44.4219C144.938 43.3438 143.719 42.5703 142.594 42.1016C141.469 41.5859 140.508 41.3047 139.711 41.2578C138.961 41.1641 138.586 41.1172 138.586 41.1172C135.398 41.1172 132.516 42.0078 129.938 43.7891C127.359 45.5703 125.156 48.2656 123.328 51.875C121.5 55.4375 120.07 59.9141 119.039 65.3047C118.055 70.6953 117.562 77.0234 117.562 84.2891C117.562 91.5547 118.008 97.9531 118.898 103.484C119.836 108.969 121.125 113.562 122.766 117.266C124.453 120.969 126.492 123.758 128.883 125.633C131.273 127.461 133.945 128.375 136.898 128.375C136.992 128.375 137.438 128.328 138.234 128.234C139.031 128.141 139.969 127.836 141.047 127.32C142.172 126.805 143.367 125.984 144.633 124.859C145.945 123.688 147.164 122.047 148.289 119.938C149.461 117.828 150.445 115.156 151.242 111.922C152.086 108.641 152.625 104.633 152.859 99.8984C149.25 100.18 145.711 100.578 142.242 101.094C138.773 101.609 135.305 102.266 131.836 103.062V91.6719C138.305 91.9531 144.727 92.0938 151.102 92.0938C153.352 92.0938 155.578 92.0938 157.781 92.0938C160.031 92.0938 162.281 92.0469 164.531 91.9531C164.531 97.5781 164.133 102.547 163.336 106.859C162.586 111.125 161.578 114.852 160.312 118.039C159.094 121.18 157.664 123.852 156.023 126.055C154.43 128.211 152.789 129.992 151.102 131.398C149.414 132.805 147.75 133.883 146.109 134.633C144.516 135.383 143.062 135.922 141.75 136.25C140.438 136.625 139.359 136.836 138.516 136.883C137.719 136.977 137.273 137.023 137.18 137.023C131.836 137.023 127.078 135.922 122.906 133.719C118.734 131.469 115.219 128.164 112.359 123.805C109.5 119.398 107.32 113.961 105.82 107.492C104.367 100.977 103.641 93.4531 103.641 84.9219C103.641 75.6875 104.367 67.6953 105.82 60.9453C107.273 54.1953 109.477 48.6172 112.43 44.2109C115.383 39.7578 119.109 36.4531 123.609 34.2969C128.156 32.1406 133.5 31.0625 139.641 31.0625C139.781 31.0625 140.531 31.1328 141.891 31.2734C143.25 31.3672 144.891 31.7422 146.812 32.3984C148.734 33.0547 150.773 34.1094 152.93 35.5625C155.133 36.9688 157.148 38.9844 158.977 41.6094C160.852 44.2344 162.398 47.5859 163.617 51.6641C164.883 55.7422 165.516 60.7344 165.516 66.6406L153.844 67.2031ZM359.438 62.7031C361.5 64.8125 363.188 67.1797 364.5 69.8047C365.812 72.3828 366.844 75.0547 367.594 77.8203C368.344 80.5859 368.859 83.3516 369.141 86.1172C369.422 88.8828 369.562 91.4609 369.562 93.8516C369.516 98.8672 369.023 103.391 368.086 107.422C367.195 111.406 366 114.969 364.5 118.109C363 121.203 361.266 123.875 359.297 126.125C357.328 128.375 355.242 130.227 353.039 131.68C350.883 133.133 348.656 134.188 346.359 134.844C344.109 135.547 341.953 135.898 339.891 135.898C338.156 135.898 336.492 135.758 334.898 135.477C333.352 135.195 331.898 134.844 330.539 134.422C329.32 135.312 328.219 136.273 327.234 137.305C326.297 138.336 325.477 139.367 324.773 140.398C324.07 141.477 323.531 142.531 323.156 143.562C322.781 144.594 322.594 145.578 322.594 146.516C322.594 148.109 323.039 149.328 323.93 150.172C324.867 151.016 325.758 151.438 326.602 151.438C327.82 151.438 329.062 151.086 330.328 150.383C331.594 149.727 332.906 148.883 334.266 147.852C335.672 146.82 337.125 145.695 338.625 144.477C340.172 143.305 341.766 142.203 343.406 141.172C345.094 140.141 346.875 139.273 348.75 138.57C350.625 137.914 352.617 137.586 354.727 137.586C356.602 137.586 358.406 137.844 360.141 138.359C361.875 138.875 363.469 139.625 364.922 140.609C366.422 141.641 367.711 142.906 368.789 144.406C369.867 145.906 370.688 147.664 371.25 149.68C371.484 150.477 371.625 151.25 371.672 152C371.766 152.75 371.812 153.523 371.812 154.32C371.812 158.258 370.898 161.75 369.07 164.797C367.289 167.844 364.875 170.398 361.828 172.461C358.781 174.57 355.219 176.141 351.141 177.172C347.109 178.25 342.82 178.789 338.273 178.789C336.539 178.789 334.781 178.672 333 178.438C331.266 178.25 329.531 177.922 327.797 177.453L329.062 171.125C330 171.359 330.914 171.523 331.805 171.617C332.742 171.711 333.656 171.758 334.547 171.758C336.797 171.758 338.883 171.547 340.805 171.125C342.727 170.75 344.391 170.305 345.797 169.789C347.438 169.227 348.961 168.57 350.367 167.82C354.164 165.711 356.859 163.672 358.453 161.703C360.094 159.734 360.914 157.789 360.914 155.867C360.914 154.883 360.727 153.945 360.352 153.055C360.023 152.211 359.555 151.438 358.945 150.734C358.336 150.078 357.609 149.539 356.766 149.117C355.922 148.742 354.984 148.555 353.953 148.555C352.312 148.555 350.414 149.07 348.258 150.102C346.102 151.18 343.688 152.914 341.016 155.305C338.766 157.273 336.422 158.727 333.984 159.664C331.547 160.602 329.086 161.07 326.602 161.07C324.961 161.07 323.297 160.812 321.609 160.297C319.969 159.828 318.469 159.125 317.109 158.188C315.797 157.25 314.695 156.055 313.805 154.602C312.961 153.195 312.539 151.555 312.539 149.68C312.539 148.227 312.773 146.68 313.242 145.039C313.711 143.445 314.414 141.828 315.352 140.188C316.289 138.594 317.438 137.023 318.797 135.477C320.203 133.93 321.797 132.477 323.578 131.117C320.766 129.102 318.422 126.641 316.547 123.734C314.672 120.781 313.148 117.617 311.977 114.242C310.805 110.867 309.961 107.398 309.445 103.836C308.977 100.227 308.742 96.7344 308.742 93.3594C308.742 86.7031 309.492 80.9609 310.992 76.1328C312.539 71.3047 314.625 67.3203 317.25 64.1797C319.922 61.0391 323.039 58.7187 326.602 57.2188C330.211 55.7188 334.102 54.9688 338.273 54.9688C340.805 54.9688 343.148 55.1797 345.305 55.6016C347.461 55.9766 349.453 56.5156 351.281 57.2188L358.172 39.7109L368.367 46.8828L359.438 62.7031ZM359.438 93.7109C359.438 92.2578 359.367 90.6172 359.227 88.7891C359.133 86.9609 358.875 85.0859 358.453 83.1641C358.078 81.2422 357.516 79.3438 356.766 77.4688C356.062 75.5469 355.125 73.7891 353.953 72.1953L347.625 83.4453L342.141 80.4219L347.484 66.7812C346.266 66.2656 344.93 65.8438 343.477 65.5156C342.023 65.1875 340.43 65.0234 338.695 65.0234C331.852 65.3047 326.836 67.8594 323.648 72.6875C320.461 77.5156 318.867 84.3594 318.867 93.2188C318.867 99.3125 319.43 104.445 320.555 108.617C321.727 112.789 323.227 116.164 325.055 118.742C326.883 121.273 328.922 123.102 331.172 124.227C333.469 125.352 335.742 125.914 337.992 125.914C340.383 125.914 342.82 125.328 345.305 124.156C347.836 122.938 350.133 121.039 352.195 118.461C354.305 115.836 356.016 112.508 357.328 108.477C358.688 104.398 359.391 99.4766 359.438 93.7109Z" fill="#4285F4"/>
<path d="M233.227 92.0938C233.227 98.8438 232.43 104.891 230.836 110.234C229.289 115.578 227.156 120.125 224.438 123.875C221.766 127.578 218.602 130.438 214.945 132.453C211.289 134.422 207.398 135.406 203.273 135.406C199.102 135.406 195.188 134.375 191.531 132.312C187.875 130.25 184.688 127.32 181.969 123.523C179.25 119.727 177.094 115.18 175.5 109.883C173.953 104.539 173.18 98.6094 173.18 92.0938C173.18 86.5156 173.859 81.4297 175.219 76.8359C176.625 72.1953 178.617 68.2109 181.195 64.8828C183.82 61.5547 186.984 58.9766 190.688 57.1484C194.438 55.2734 198.633 54.3359 203.273 54.3359C208.43 54.3359 212.883 55.2734 216.633 57.1484C220.383 58.9766 223.477 61.5547 225.914 64.8828C228.398 68.2109 230.227 72.1953 231.398 76.8359C232.617 81.4297 233.227 86.5156 233.227 92.0938ZM222.328 92.2344C222.328 88.0156 221.953 84.1719 221.203 80.7031C220.453 77.2344 219.281 74.2578 217.688 71.7734C216.141 69.2422 214.172 67.2969 211.781 65.9375C209.391 64.5781 206.555 63.8984 203.273 63.8984C200.32 63.8984 197.648 64.5781 195.258 65.9375C192.914 67.2969 190.922 69.2422 189.281 71.7734C187.641 74.2578 186.375 77.2344 185.484 80.7031C184.594 84.1719 184.148 88.0156 184.148 92.2344C184.148 97.1562 184.641 101.609 185.625 105.594C186.656 109.578 188.016 113 189.703 115.859C191.438 118.719 193.453 120.922 195.75 122.469C198.094 124.016 200.602 124.789 203.273 124.789C205.898 124.789 208.359 124.039 210.656 122.539C213 121.039 215.016 118.883 216.703 116.07C218.438 113.258 219.797 109.859 220.781 105.875C221.812 101.844 222.328 97.2969 222.328 92.2344ZM417.023 92.6562C416.93 93.1719 416.906 93.6875 416.953 94.2031C417 94.6719 417.023 95.1641 417.023 95.6797C417.023 100.367 417.492 104.328 418.43 107.562C419.367 110.75 420.539 113.398 421.945 115.508C423.398 117.617 424.969 119.234 426.656 120.359C428.391 121.484 430.008 122.328 431.508 122.891C433.008 123.406 434.297 123.711 435.375 123.805C436.453 123.898 437.109 123.945 437.344 123.945C437.297 123.945 437.625 123.922 438.328 123.875C439.031 123.781 439.945 123.594 441.07 123.312C442.242 122.984 443.555 122.492 445.008 121.836C446.461 121.18 447.891 120.266 449.297 119.094C450.75 117.875 452.109 116.375 453.375 114.594C454.641 112.766 455.672 110.539 456.469 107.914L465.117 110.375C464.414 113.281 463.477 115.859 462.305 118.109C461.133 120.359 459.82 122.328 458.367 124.016C456.961 125.703 455.438 127.156 453.797 128.375C452.203 129.547 450.633 130.508 449.086 131.258C445.43 133.133 441.516 134.234 437.344 134.562C433.219 134.562 429.562 133.953 426.375 132.734C423.234 131.469 420.516 129.781 418.219 127.672C415.922 125.562 414 123.148 412.453 120.43C410.906 117.711 409.664 114.875 408.727 111.922C407.836 108.922 407.18 105.945 406.758 102.992C406.383 99.9922 406.195 97.1797 406.195 94.5547C406.195 92.1172 406.336 89.4453 406.617 86.5391C406.898 83.6328 407.438 80.7031 408.234 77.75C409.031 74.7969 410.156 71.9375 411.609 69.1719C413.062 66.4062 414.961 63.9453 417.305 61.7891C419.648 59.6328 422.484 57.9219 425.812 56.6562C429.188 55.3437 433.172 54.6875 437.766 54.6875C438.562 54.6875 439.852 54.7812 441.633 54.9688C443.461 55.1094 445.5 55.5781 447.75 56.375C450 57.125 452.32 58.2969 454.711 59.8906C457.102 61.4375 459.281 63.6172 461.25 66.4297C463.266 69.2422 464.906 72.7812 466.172 77.0469C467.484 81.3125 468.141 86.5156 468.141 92.6562H417.023ZM437.344 65.4453C434.109 65.6797 431.133 66.4531 428.414 67.7656C427.242 68.3281 426.07 69.0547 424.898 69.9453C423.773 70.7891 422.719 71.8438 421.734 73.1094C420.75 74.3281 419.883 75.7812 419.133 77.4688C418.383 79.1562 417.867 81.1016 417.586 83.3047H456.188C455.906 80.5391 455.156 78.0547 453.938 75.8516C452.719 73.6484 451.219 71.7734 449.438 70.2266C447.703 68.6797 445.758 67.5078 443.602 66.7109C441.492 65.8672 439.406 65.4453 437.344 65.4453Z" fill="#DB4437"/>
<path d="M300.867 92.0938C300.867 98.8438 300.07 104.891 298.477 110.234C296.93 115.578 294.797 120.125 292.078 123.875C289.406 127.578 286.242 130.438 282.586 132.453C278.93 134.422 275.039 135.406 270.914 135.406C266.742 135.406 262.828 134.375 259.172 132.312C255.516 130.25 252.328 127.32 249.609 123.523C246.891 119.727 244.734 115.18 243.141 109.883C241.594 104.539 240.82 98.6094 240.82 92.0938C240.82 86.5156 241.5 81.4297 242.859 76.8359C244.266 72.1953 246.258 68.2109 248.836 64.8828C251.461 61.5547 254.625 58.9766 258.328 57.1484C262.078 55.2734 266.273 54.3359 270.914 54.3359C276.07 54.3359 280.523 55.2734 284.273 57.1484C288.023 58.9766 291.117 61.5547 293.555 64.8828C296.039 68.2109 297.867 72.1953 299.039 76.8359C300.258 81.4297 300.867 86.5156 300.867 92.0938ZM289.969 92.2344C289.969 88.0156 289.594 84.1719 288.844 80.7031C288.094 77.2344 286.922 74.2578 285.328 71.7734C283.781 69.2422 281.812 67.2969 279.422 65.9375C277.031 64.5781 274.195 63.8984 270.914 63.8984C267.961 63.8984 265.289 64.5781 262.898 65.9375C260.555 67.2969 258.562 69.2422 256.922 71.7734C255.281 74.2578 254.016 77.2344 253.125 80.7031C252.234 84.1719 251.789 88.0156 251.789 92.2344C251.789 97.1562 252.281 101.609 253.266 105.594C254.297 109.578 255.656 113 257.344 115.859C259.078 118.719 261.094 120.922 263.391 122.469C265.734 124.016 268.242 124.789 270.914 124.789C273.539 124.789 276 124.039 278.297 122.539C280.641 121.039 282.656 118.883 284.344 116.07C286.078 113.258 287.438 109.859 288.422 105.875C289.453 101.844 289.969 97.2969 289.969 92.2344Z" fill="#F4B400"/>
<path d="M392.625 34.7891L391.219 133.578H382.852L381.445 33.9453L392.625 34.7891Z" fill="#0F9D58"/>
<path d="M420.316 147.018C420.316 148.134 419.854 148.938 418.93 149.43C419.698 149.718 420.238 150.108 420.55 150.6C420.874 151.08 421.036 151.71 421.036 152.49C421.036 153.582 420.706 154.44 420.046 155.064C419.386 155.688 418.396 156 417.076 156H413.422V143.976H415.636C416.344 143.976 416.86 143.982 417.184 143.994C419.272 144.066 420.316 145.074 420.316 147.018ZM415.15 145.272V148.872H416.914C417.442 148.836 417.85 148.656 418.138 148.332C418.426 147.996 418.57 147.606 418.57 147.162C418.57 146.706 418.522 146.37 418.426 146.154C418.342 145.938 418.234 145.77 418.102 145.65C417.982 145.53 417.796 145.44 417.544 145.38C417.16 145.308 416.644 145.272 415.996 145.272H415.15ZM416.734 154.542C418.438 154.542 419.29 153.834 419.29 152.418C419.29 151.698 419.05 151.152 418.57 150.78C418.186 150.396 417.502 150.204 416.518 150.204H415.15V154.542H416.734ZM422.55 158.574C423.21 158.574 423.744 158.388 424.152 158.016C424.572 157.644 424.938 156.984 425.25 156.036L421.92 147L423.63 146.892L425.988 154.29L428.112 146.892H429.804L426.816 155.82C426.348 157.236 425.802 158.25 425.178 158.862C424.566 159.486 423.768 159.798 422.784 159.798C422.388 159.798 421.98 159.756 421.56 159.672L421.758 158.52C421.95 158.556 422.214 158.574 422.55 158.574ZM435.079 153.75V143.976H436.807V153.714C436.807 154.986 436.567 156.072 436.087 156.972C435.619 157.884 434.785 158.61 433.585 159.15L432.883 157.944C433.771 157.44 434.359 156.882 434.647 156.27C434.935 155.658 435.079 154.818 435.079 153.75ZM442.874 156.234C441.53 156.234 440.528 155.778 439.868 154.866C439.22 153.942 438.896 152.79 438.896 151.41C438.896 150.018 439.244 148.89 439.94 148.026C440.636 147.15 441.59 146.712 442.802 146.712C443.822 146.712 444.596 147 445.124 147.576C445.664 148.14 445.934 148.89 445.934 149.826C445.934 150.246 445.844 150.786 445.664 151.446H440.372C440.396 152.466 440.618 153.294 441.038 153.93C441.458 154.566 442.082 154.884 442.91 154.884C443.75 154.884 444.542 154.716 445.286 154.38L445.7 155.496C444.836 155.988 443.894 156.234 442.874 156.234ZM444.458 150.132C444.458 149.484 444.326 148.974 444.062 148.602C443.798 148.23 443.432 148.044 442.964 148.044C442.496 148.044 442.106 148.128 441.794 148.296C441.494 148.452 441.26 148.656 441.092 148.908C440.804 149.388 440.624 149.832 440.552 150.24L444.458 150.276V150.132ZM447.744 154.344C448.536 154.692 449.262 154.866 449.922 154.866C450.582 154.866 451.062 154.746 451.362 154.506C451.674 154.254 451.83 153.948 451.83 153.588C451.83 153.216 451.68 152.904 451.38 152.652C451.092 152.4 450.738 152.202 450.318 152.058C449.898 151.902 449.472 151.74 449.04 151.572C448.62 151.404 448.26 151.14 447.96 150.78C447.672 150.408 447.528 149.946 447.528 149.394C447.528 148.578 447.816 147.93 448.392 147.45C448.968 146.958 449.748 146.712 450.732 146.712C451.716 146.712 452.508 146.886 453.108 147.234L452.73 148.44C452.034 148.2 451.392 148.08 450.804 148.08C450.216 148.08 449.778 148.188 449.49 148.404C449.202 148.62 449.058 148.914 449.058 149.286C449.058 149.646 449.208 149.946 449.508 150.186C449.808 150.426 450.168 150.618 450.588 150.762C451.02 150.906 451.446 151.068 451.866 151.248C452.286 151.416 452.646 151.68 452.946 152.04C453.246 152.4 453.396 152.85 453.396 153.39C453.396 154.182 453.102 154.854 452.514 155.406C451.926 155.958 451.086 156.234 449.994 156.234C449.49 156.234 448.98 156.168 448.464 156.036C447.96 155.904 447.582 155.748 447.33 155.568L447.744 154.344ZM455.144 154.344C455.936 154.692 456.662 154.866 457.322 154.866C457.982 154.866 458.462 154.746 458.762 154.506C459.074 154.254 459.23 153.948 459.23 153.588C459.23 153.216 459.08 152.904 458.78 152.652C458.492 152.4 458.138 152.202 457.718 152.058C457.298 151.902 456.872 151.74 456.44 151.572C456.02 151.404 455.66 151.14 455.36 150.78C455.072 150.408 454.928 149.946 454.928 149.394C454.928 148.578 455.216 147.93 455.792 147.45C456.368 146.958 457.148 146.712 458.132 146.712C459.116 146.712 459.908 146.886 460.508 147.234L460.13 148.44C459.434 148.2 458.792 148.08 458.204 148.08C457.616 148.08 457.178 148.188 456.89 148.404C456.602 148.62 456.458 148.914 456.458 149.286C456.458 149.646 456.608 149.946 456.908 150.186C457.208 150.426 457.568 150.618 457.988 150.762C458.42 150.906 458.846 151.068 459.266 151.248C459.686 151.416 460.046 151.68 460.346 152.04C460.646 152.4 460.796 152.85 460.796 153.39C460.796 154.182 460.502 154.854 459.914 155.406C459.326 155.958 458.486 156.234 457.394 156.234C456.89 156.234 456.38 156.168 455.864 156.036C455.36 155.904 454.982 155.748 454.73 155.568L455.144 154.344ZM466.235 156.234C464.891 156.234 463.889 155.778 463.229 154.866C462.581 153.942 462.257 152.79 462.257 151.41C462.257 150.018 462.605 148.89 463.301 148.026C463.997 147.15 464.951 146.712 466.163 146.712C467.183 146.712 467.957 147 468.485 147.576C469.025 148.14 469.295 148.89 469.295 149.826C469.295 150.246 469.205 150.786 469.025 151.446H463.733C463.757 152.466 463.979 153.294 464.399 153.93C464.819 154.566 465.443 154.884 466.271 154.884C467.111 154.884 467.903 154.716 468.647 154.38L469.061 155.496C468.197 155.988 467.255 156.234 466.235 156.234ZM467.819 150.132C467.819 149.484 467.687 148.974 467.423 148.602C467.159 148.23 466.793 148.044 466.325 148.044C465.857 148.044 465.467 148.128 465.155 148.296C464.855 148.452 464.621 148.656 464.453 148.908C464.165 149.388 463.985 149.832 463.913 150.24L467.819 150.276V150.132Z" fill="#4285F4"/>
</svg>
